<svg xmlns="http://www.w3.org/2000/svg" version="1.1" xmlns:xlink="http://www.w3.org/1999/xlink" xmlns:svgjs="http://svgjs.dev/svgjs" width="1000" height="174" viewBox="0 0 1000 174"><g transform="matrix(1,0,0,1,-0.6060606060606233,0.28349963138524004)"><svg viewBox="0 0 396 69" data-background-color="#ffffff" preserveAspectRatio="xMidYMid meet" height="174" width="1000" xmlns="http://www.w3.org/2000/svg" xmlns:xlink="http://www.w3.org/1999/xlink"><g id="tight-bounds" transform="matrix(1,0,0,1,0.2400000000000091,-0.11242226761828533)"><svg viewBox="0 0 395.52 69.22484453523656" height="69.22484453523656" width="395.52"><g><svg viewBox="0 0 500.0010600924328 87.5113664349518" height="69.22484453523656" width="395.52"><g transform="matrix(1,0,0,1,104.48106009243278,25.785099954584943)"><svg viewBox="0 0 395.52 35.94116652578191" height="35.94116652578191" width="395.52"><g id="textblocktransform"><svg viewBox="0 0 395.52 35.94116652578191" height="35.94116652578191" width="395.52" id="textblock"><g><svg viewBox="0 0 395.52 35.94116652578191" height="35.94116652578191" width="395.52"><g transform="matrix(1,0,0,1,0,0)"><svg width="395.52" viewBox="1.93 -36.25 404.32 36.74" height="35.94116652578191" data-palette-color="#2baaac"><path d="M28.61 0L25.22-9.72 9.79-9.72 6.45 0 1.93 0 15.23-35.77 20.31-35.77 33.64 0 28.61 0ZM11.08-13.45L23.88-13.45 19.14-27.42 17.75-32.4 17.26-32.4 15.87-27.42 11.08-13.45ZM45.02 0L40.65 0 40.65-35.77 47.6-35.77 64.48-11.35 66.92-6.96 67.4-6.96 67.06-11.94 67.06-35.77 71.43-35.77 71.43 0 67.38 0 47.36-28.81 45.16-33.06 44.68-33.06 45.02-28.08 45.02 0ZM81.59-35.77L86.37-35.77 86.37-13.55Q86.37-10.89 87.25-8.95 88.13-7.01 89.53-5.75 90.94-4.49 92.67-3.89 94.4-3.3 96.14-3.3L96.14-3.3Q97.9-3.3 99.48-3.92 101.07-4.54 102.25-5.77 103.44-7.01 104.15-8.85 104.85-10.69 104.85-13.16L104.85-13.16 104.85-35.77 109.25-35.77 109.25-13.21Q109.25-11.72 108.88-10.12 108.52-8.52 107.77-7.01 107.03-5.49 105.88-4.13 104.73-2.76 103.17-1.73 101.61-0.71 99.6-0.11 97.6 0.49 95.14 0.49L95.14 0.49Q92.13 0.49 89.64-0.45 87.15-1.39 85.36-3.19 83.56-4.98 82.58-7.6 81.59-10.23 81.59-13.57L81.59-13.57 81.59-35.77ZM131-14.26L124.43-14.26 124.43 0 119.65 0 119.65-35.77 129.75-35.77Q132.39-35.77 134.59-35.03 136.78-34.3 138.35-33.02 139.91-31.74 140.78-30 141.64-28.27 141.64-26.27L141.64-26.27Q141.64-24.51 141.01-22.99 140.37-21.46 139.35-20.18 138.32-18.9 137.02-17.87 135.71-16.85 134.39-16.09L134.39-16.09 144.91 0 139.18 0 131-14.26ZM124.43-31.98L124.43-18.04 132.37-18.04Q133.39-18.6 134.21-19.41 135.03-20.21 135.59-21.18 136.15-22.14 136.45-23.22 136.76-24.29 136.76-25.42L136.76-25.42Q136.76-26.81 136.27-28.02 135.78-29.22 134.79-30.1 133.81-30.98 132.32-31.48 130.83-31.98 128.83-31.98L128.83-31.98 124.43-31.98ZM175.77 0L172.38-9.72 156.95-9.72 153.6 0 149.09 0 162.39-35.77 167.47-35.77 180.8 0 175.77 0ZM158.24-13.45L171.03-13.45 166.3-27.42 164.91-32.4 164.42-32.4 163.03-27.42 158.24-13.45ZM215.78-16.75L215.78-1.83Q212.39-0.51 209.39-0.01 206.38 0.49 203.97 0.49L203.97 0.49Q199.89 0.49 196.55-0.74 193.2-1.98 190.82-4.26 188.44-6.54 187.15-9.78 185.85-13.01 185.85-16.99L185.85-16.99Q185.85-20 186.58-22.6 187.32-25.2 188.63-27.33 189.95-29.47 191.8-31.13 193.64-32.79 195.85-33.92 198.06-35.06 200.57-35.66 203.09-36.25 205.77-36.25L205.77-36.25Q207.53-36.25 209.9-35.95 212.27-35.64 214.95-34.84L214.95-34.84 214.15-30.64 213.66-30.4Q210.97-31.62 208.68-32.04 206.38-32.47 204.75-32.47L204.75-32.47Q201.62-32.47 199.06-31.34 196.5-30.2 194.67-28.23 192.83-26.27 191.83-23.62 190.83-20.97 190.83-17.97L190.83-17.97Q190.83-15.11 191.76-12.46 192.69-9.81 194.46-7.78 196.23-5.74 198.82-4.52 201.4-3.3 204.75-3.3L204.75-3.3Q206.21-3.3 207.93-3.56 209.66-3.83 211.49-4.39L211.49-4.39 211.49-16.75 215.78-16.75ZM264.24-6.3L264.24-3.44Q262.87-2.25 261.26-1.48 259.65-0.71 258.01-0.27 256.38 0.17 254.88 0.33 253.38 0.49 252.23 0.49L252.23 0.49Q248.69 0.49 245.64-0.77 242.59-2.03 240.33-4.32 238.07-6.62 236.79-9.85 235.5-13.09 235.5-17.07L235.5-17.07Q235.5-20.04 236.24-22.63 236.97-25.22 238.29-27.34 239.61-29.47 241.41-31.13 243.22-32.79 245.39-33.92 247.57-35.06 250.01-35.66 252.45-36.25 255.01-36.25L255.01-36.25Q256.7-36.25 259.06-35.95 261.43-35.64 264.14-34.84L264.14-34.84 263.31-30.59 262.82-30.35Q260.14-31.57 257.83-32.02 255.52-32.47 253.91-32.47L253.91-32.47Q250.98-32.47 248.52-31.34 246.05-30.2 244.27-28.23 242.49-26.27 241.49-23.66 240.49-21.04 240.49-18.09L240.49-18.09Q240.49-15.26 241.38-12.61 242.27-9.96 244-7.92 245.73-5.88 248.27-4.65 250.81-3.42 254.11-3.42L254.11-3.42Q255.06-3.42 256.21-3.54 257.36-3.66 258.65-3.99 259.94-4.32 261.36-4.87 262.78-5.42 264.24-6.3L264.24-6.3ZM288.04-3.3L288.04-3.3Q290.85-3.3 293.18-4.42 295.51-5.54 297.2-7.51 298.88-9.47 299.81-12.11 300.74-14.75 300.74-17.8L300.74-17.8Q300.74-21 299.72-23.69 298.71-26.39 296.94-28.34 295.17-30.3 292.79-31.38 290.41-32.47 287.68-32.47L287.68-32.47Q284.82-32.47 282.49-31.31 280.16-30.15 278.5-28.17 276.84-26.2 275.92-23.55 275-20.9 275-17.9L275-17.9Q275-14.7 276.01-12.02 277.01-9.35 278.76-7.41 280.52-5.47 282.9-4.38 285.28-3.3 288.04-3.3ZM287.21 0.49L287.21 0.49Q283.79 0.49 280.67-0.73 277.54-1.95 275.16-4.22 272.78-6.49 271.38-9.73 269.98-12.96 269.98-16.99L269.98-16.99Q269.98-19.78 270.67-22.28 271.37-24.78 272.61-26.92 273.86-29.05 275.58-30.79 277.3-32.52 279.37-33.73 281.45-34.94 283.78-35.6 286.11-36.25 288.6-36.25L288.6-36.25Q290.82-36.25 292.96-35.72 295.1-35.18 297.01-34.16 298.93-33.13 300.53-31.62 302.13-30.1 303.3-28.17 304.47-26.25 305.12-23.89 305.77-21.53 305.77-18.8L305.77-18.8Q305.77-16.04 305.09-13.53 304.42-11.01 303.19-8.87 301.96-6.74 300.26-5 298.56-3.27 296.5-2.05 294.44-0.83 292.08-0.17 289.73 0.49 287.21 0.49ZM314.7 0L314.7-35.77 326.78-35.77Q331.52-35.77 335.1-34.46 338.67-33.15 341.07-30.91 343.46-28.66 344.67-25.61 345.88-22.56 345.88-19.09L345.88-19.09Q345.88-16.85 345.36-14.56 344.85-12.28 343.79-10.16 342.73-8.03 341.12-6.18 339.5-4.32 337.29-2.95 335.08-1.59 332.27-0.79 329.45 0 326 0L326 0 314.7 0ZM319.48-31.98L319.48-3.78 326.88-3.78Q330.42-3.78 333.06-4.92 335.7-6.05 337.42-8 339.14-9.94 339.99-12.54 340.85-15.14 340.85-18.09L340.85-18.09Q340.85-21.31 339.86-23.89 338.87-26.46 336.98-28.26 335.08-30.05 332.31-31.02 329.54-31.98 326-31.98L326-31.98 319.48-31.98ZM375.44 0L354.81 0 354.81-35.77 375.78-35.77 375.05-31.98 359.59-31.98 359.59-20.56 373.36-20.56 372.63-16.77 359.59-16.77 359.59-3.78 376.17-3.78 375.44 0ZM394.19-3.3L394.19-3.3Q395.8-3.3 397.16-3.72 398.53-4.15 399.51-4.94 400.49-5.74 401.03-6.84 401.58-7.93 401.58-9.28L401.58-9.28Q401.58-10.86 400.84-11.96 400.09-13.06 398.89-13.89 397.68-14.72 396.12-15.37 394.55-16.02 392.94-16.69 391.33-17.36 389.77-18.14 388.2-18.92 387-20.04 385.79-21.17 385.04-22.69 384.3-24.22 384.3-26.39L384.3-26.39Q384.3-28.69 385.18-30.52 386.06-32.35 387.63-33.63 389.21-34.91 391.37-35.58 393.53-36.25 396.12-36.25L396.12-36.25Q397.7-36.25 400.09-35.95 402.49-35.64 405.17-34.84L405.17-34.84 404.37-30.59 403.88-30.35Q402.54-30.96 401.27-31.37 400-31.79 398.87-32.03 397.75-32.28 396.8-32.37 395.85-32.47 395.14-32.47L395.14-32.47Q393.7-32.47 392.54-32.12 391.38-31.76 390.56-31.09 389.74-30.42 389.29-29.46 388.84-28.49 388.84-27.27L388.84-27.27Q388.84-25.63 389.58-24.49 390.33-23.34 391.56-22.46 392.79-21.58 394.36-20.9 395.92-20.21 397.54-19.53 399.17-18.85 400.73-18.07 402.29-17.29 403.52-16.25 404.76-15.21 405.5-13.79 406.25-12.38 406.25-10.4L406.25-10.4Q406.25-8.23 405.31-6.26 404.37-4.3 402.67-2.8 400.97-1.29 398.59-0.4 396.21 0.49 393.33 0.49L393.33 0.49Q392.11 0.49 390.78 0.32 389.45 0.15 388.11-0.16 386.76-0.46 385.46-0.9 384.15-1.34 382.98-1.88L382.98-1.88 383.81-6.15 384.3-6.4Q386.79-4.96 389.34-4.13 391.89-3.3 394.19-3.3Z" opacity="1" transform="matrix(1,0,0,1,0,0)" fill="#2baaac" class="wordmark-text-0" data-fill-palette-color="primary" id="text-0"></path></svg></g></svg></g></svg></g></svg></g><g><svg viewBox="0 0 87.5113664349518 87.5113664349518" height="87.5113664349518" width="87.5113664349518"><g><svg></svg></g><g id="icon-0"><svg viewBox="0 0 87.5113664349518 87.5113664349518" height="87.5113664349518" width="87.5113664349518"><g><path d="M0 43.756c0-24.166 19.59-43.756 43.756-43.756 24.166 0 43.756 19.59 43.755 43.756 0 24.166-19.59 43.756-43.755 43.755-24.166 0-43.756-19.59-43.756-43.755zM43.756 84.27c22.376 0 40.514-18.139 40.514-40.514 0-22.376-18.139-40.514-40.514-40.515-22.376 0-40.514 18.139-40.515 40.515 0 22.376 18.139 40.514 40.515 40.514z" data-fill-palette-color="accent" fill="#29a892" stroke="transparent"></path></g><g transform="matrix(1,0,0,1,18.43434987473646,28.194305834272967)"><svg viewBox="0 0 50.64266668547888 31.122754766405862" height="31.122754766405862" width="50.64266668547888"><g><svg xmlns="http://www.w3.org/2000/svg" data-name="Layer 1" viewBox="2.430551295781235 20.791724898981606 95.13905147020833 58.4682751010184" x="0" y="0" height="31.122754766405862" width="50.64266668547888" class="icon-g$-0" data-fill-palette-color="accent" id="g$-0"><path d="M62.78 23l32 55.42 1.3-2.26h-64l1.3 2.26L65.37 23a1.5 1.5 0 0 0-2.59-1.51L30.79 77a1.51 1.51 0 0 0 1.3 2.26h64A1.51 1.51 0 0 0 97.37 77l-32-55.42A1.5 1.5 0 0 0 62.78 23Z" fill="#29a892" data-fill-palette-color="accent"></path><path d="M34.63 23l32 55.42 1.3-2.26h-64l1.3 2.26L37.22 23a1.5 1.5 0 0 0-2.59-1.51L2.63 77a1.51 1.51 0 0 0 1.3 2.26h64A1.51 1.51 0 0 0 69.21 77l-32-55.42A1.5 1.5 0 0 0 34.63 23Z" fill="#29a892" data-fill-palette-color="accent"></path></svg></g></svg></g></svg></g></svg></g></svg></g><defs></defs></svg><rect width="395.52" height="69.22484453523656" fill="none" stroke="none" visibility="hidden"></rect></g></svg></g></svg>